<svg width="32" height="32" viewBox="0 0 32 32" fill="none" xmlns="http://www.w3.org/2000/svg">
<g id="vuesax/linear/code">
<g id="code">
<path id="Vector" d="M11.9999 17.3333C11.1199 17.7733 10.3865 18.4267 9.83986 19.24C9.5332 19.7067 9.5332 20.2933 9.83986 20.76C10.3865 21.5733 11.1199 22.2267 11.9999 22.6667" stroke="#FEDC5A" stroke-width="2" stroke-linecap="round" stroke-linejoin="round"/>
<path id="Vector_2" d="M20.28 17.3333C21.16 17.7733 21.8934 18.4267 22.44 19.24C22.7467 19.7067 22.7467 20.2933 22.44 20.76C21.8934 21.5733 21.16 22.2267 20.28 22.6667" stroke="#FEDC5A" stroke-width="2" stroke-linecap="round" stroke-linejoin="round"/>
<path id="Vector_3" d="M12.0001 29.3333H20.0001C26.6667 29.3333 29.3334 26.6667 29.3334 20V12C29.3334 5.33333 26.6667 2.66667 20.0001 2.66667H12.0001C5.33341 2.66667 2.66675 5.33333 2.66675 12V20C2.66675 26.6667 5.33341 29.3333 12.0001 29.3333Z" stroke="#FEDC5A" stroke-width="2" stroke-linecap="round" stroke-linejoin="round"/>
<path id="Vector_4" d="M2.97339 10.68L28.6001 10.6667" stroke="#FEDC5A" stroke-width="2" stroke-linecap="round" stroke-linejoin="round"/>
</g>
</g>
</svg>
