<svg width="32" height="32" viewBox="0 0 32 32" fill="none" xmlns="http://www.w3.org/2000/svg">
<g id="vuesax/linear/align-vertically">
<g id="align-vertically">
<path id="Vector" d="M23.2 25.6667H8.8C6.8 25.6667 6 24.8133 6 22.6933V21.3067C6 19.1867 6.8 18.3333 8.8 18.3333H23.2C25.2 18.3333 26 19.1867 26 21.3067V22.6933C26 24.8133 25.2 25.6667 23.2 25.6667Z" stroke="#FEDC5A" stroke-width="2" stroke-linecap="round" stroke-linejoin="round"/>
<path id="Vector_2" d="M20.5334 14.3333H11.4667C9.46675 14.3333 8.66675 13.48 8.66675 11.36V9.97333C8.66675 7.85333 9.46675 7 11.4667 7H20.5334C22.5334 7 23.3334 7.85333 23.3334 9.97333V11.36C23.3334 13.48 22.5334 14.3333 20.5334 14.3333Z" stroke="#FEDC5A" stroke-width="2" stroke-linecap="round" stroke-linejoin="round"/>
<path id="Vector_3" d="M16 29.3333V26.1333" stroke="#FEDC5A" stroke-width="2" stroke-linecap="round" stroke-linejoin="round"/>
<path id="Vector_4" d="M16 17.3333V14.6667" stroke="#FEDC5A" stroke-width="2" stroke-linecap="round" stroke-linejoin="round"/>
<path id="Vector_5" d="M16 2.66666V6.25332" stroke="#292D32" stroke-width="2" stroke-linecap="round" stroke-linejoin="round"/>
</g>
</g>
</svg>
